<svg width="192" height="40" viewBox="0 0 192 40" fill="none" xmlns="http://www.w3.org/2000/svg">
<path d="M17.8284 5.85048C18.1657 5.74796 18.5479 5.62265 18.6716 5.56569C18.7953 5.50873 19.2562 5.48595 19.6834 5.50873C20.1107 5.52012 20.6503 5.59986 20.8639 5.67961C21.0775 5.75935 21.5272 5.9644 21.8645 6.13528C22.2018 6.29476 22.6627 6.64791 22.8988 6.90992C23.1462 7.18332 23.326 7.46812 23.3036 7.53647C23.2811 7.61621 22.9888 7.83265 22.6402 8.02631C22.2917 8.21997 21.9207 8.4592 21.8083 8.56173C21.6846 8.67564 21.5047 8.76678 21.3923 8.76678C21.2911 8.76678 21.1787 8.81235 21.145 8.8807C21.1112 8.94905 20.729 9.17688 20.3018 9.39333C19.8746 9.60977 19.4923 9.82621 19.4698 9.87178C19.4473 9.92874 19.0876 10.1452 18.6716 10.3616C18.2669 10.5781 17.6598 11.0224 17.345 11.3299C17.0189 11.6489 16.6592 12.1046 16.5355 12.3552C16.3669 12.6969 16.3107 13.0387 16.3107 13.6652C16.3219 14.4057 16.3669 14.6222 16.7041 15.3057C16.9178 15.7499 17.2213 16.2284 17.3787 16.3765C17.5361 16.5246 17.9071 16.7752 18.2219 16.9233C18.5704 17.0942 18.9864 17.1967 19.3124 17.1967C19.616 17.1967 20.1219 17.1283 20.4367 17.0372C20.7627 16.9575 22.3254 16.2284 23.8994 15.4196C26.5527 14.0753 26.8112 13.9614 27.3846 13.9728C27.7781 13.9728 28.1604 14.0526 28.4527 14.2007C28.7 14.3374 29.4195 14.9753 30.0491 15.6474C30.6899 16.3081 31.3308 17.0486 31.4769 17.2764C31.6231 17.5157 31.9266 17.8916 32.1515 18.108C32.3763 18.3245 32.5562 18.5523 32.5562 18.6207C32.5562 18.689 32.8598 19.0991 33.2308 19.532C33.6018 19.9649 33.9053 20.3636 33.9053 20.4092C33.9053 20.4661 34.0965 20.7168 34.3438 20.9788C34.5799 21.2522 34.9396 21.7762 35.1308 22.1521C35.3781 22.642 35.4793 23.0065 35.5018 23.4622C35.513 23.9178 35.4456 24.2368 35.2432 24.6469C35.0183 25.1254 34.8834 25.2621 34.355 25.5013C33.9166 25.7064 33.5793 25.7861 32.6686 25.7405L32.6012 26.3899C32.5562 26.7544 32.4325 27.2442 32.3201 27.4721C32.1515 27.8138 31.9604 27.9733 31.3982 28.2353C30.7574 28.5315 30.6562 28.5543 30.0266 28.4518C29.4982 28.3606 29.3408 28.372 29.2734 28.4973C29.2284 28.5771 29.1609 28.8733 29.1272 29.1581C29.0935 29.4429 28.9586 29.8416 28.8462 30.0352C28.6775 30.3086 28.4527 30.4681 28.003 30.639C27.6657 30.7643 27.2047 30.8668 26.9911 30.8668C26.7775 30.8668 26.4627 30.8099 26.2828 30.7415C26.0243 30.639 25.9568 30.6618 25.7769 30.8896C25.6645 31.0377 25.5746 31.2541 25.5858 31.3795C25.5858 31.5048 25.4846 31.7782 25.3609 31.9718C25.2373 32.1769 24.8663 32.4958 24.5402 32.6895C24.2254 32.8718 23.8207 33.0313 23.6408 33.0313C23.4722 33.0313 23.0675 32.9629 22.7414 32.8718C22.4266 32.792 22.0107 32.6212 21.842 32.5072C21.6621 32.3933 21.5047 32.1883 21.4822 32.063C21.4598 31.9377 21.4148 31.5959 21.3811 31.2883C21.3473 30.9921 21.2349 30.582 21.1337 30.377C21.0325 30.1833 20.8414 29.8871 20.7065 29.7504C20.5828 29.6023 20.2793 29.3745 20.0432 29.2606C19.8183 29.1467 19.526 29.0441 19.4024 29.0441C19.2787 29.0441 19.0763 28.9074 18.9527 28.7252C18.8178 28.5543 18.7166 28.2923 18.7166 28.1328C18.7166 27.9733 18.6041 27.6657 18.4692 27.4379C18.3343 27.2101 18.0195 26.8569 17.7722 26.6633C17.5249 26.4582 17.1201 26.2418 16.8728 26.1734C16.6254 26.1165 16.3781 26.0253 16.3107 25.9684C16.2432 25.9228 16.1195 25.5583 16.0296 25.1709C15.8834 24.5672 15.7822 24.3849 15.3213 23.9634C15.029 23.69 14.658 23.4394 14.4781 23.4052C14.3095 23.371 14.0509 23.2799 13.8935 23.2002C13.6911 23.0976 13.5787 22.904 13.4888 22.5508C13.4213 22.266 13.2302 21.8218 13.0728 21.5484C12.9041 21.2863 12.5781 20.9446 12.342 20.7851C11.9822 20.5345 11.7911 20.4889 10.9142 20.4661C10.0148 20.4434 9.83491 20.4775 9.34024 20.7395C9.02544 20.9104 8.47456 21.3661 8.10355 21.7648C7.73254 22.1635 7.3503 22.6647 7.26036 22.8698C7.17041 23.0749 7.02426 23.2457 6.94556 23.2343C6.87811 23.2343 6.55207 23.109 6.24852 22.9495C5.93373 22.7901 5.59645 22.6647 5.49527 22.6534C5.38284 22.6534 5.01183 22.5167 4.05621 22.0382L4 7.39977L4.41598 7.46812C4.65207 7.51368 4.94438 7.59343 5.06805 7.66178C5.19172 7.73013 5.43905 7.82126 5.63018 7.86683C5.8213 7.9124 6.14734 8.01492 6.36095 8.09466C6.57456 8.16301 6.93432 8.28832 7.14793 8.36807C7.36154 8.44781 7.7213 8.57312 7.93491 8.64147C8.14852 8.72121 8.71065 8.8807 9.1716 9.00601C9.7787 9.17688 10.1722 9.22245 10.5769 9.16549C10.9142 9.10853 11.5775 8.85791 12.2521 8.49338C12.8592 8.17441 13.3763 7.87822 13.3988 7.82126C13.4213 7.77569 14.197 7.3542 15.1302 6.88714C16.0633 6.42007 16.9065 6.03275 17.0077 6.03275C17.1201 6.03275 17.4911 5.95301 17.8284 5.85048Z" fill="#3E1B05"/>
<path d="M28.6438 6.1011C28.9136 6.00997 29.2284 5.91883 29.3521 5.88466C29.4757 5.85048 29.7456 5.8277 29.9367 5.81631C30.1391 5.81631 30.5438 5.86188 30.8361 5.93023C31.1396 5.99858 32.4101 6.56817 33.6805 7.19471C35.5243 8.09466 36.1426 8.34528 36.7722 8.43642C37.2107 8.50477 37.784 8.53894 38.0651 8.50477C38.3462 8.47059 38.8746 8.36807 39.2456 8.27693C39.6166 8.1858 40.1 8.03771 40.3136 7.96935C40.5272 7.88961 40.8757 7.75291 41.0669 7.67317C41.2692 7.58203 41.5391 7.51368 41.6627 7.51368C41.7864 7.51368 41.9101 7.59343 41.9438 7.68456C41.9775 7.77569 42 10.9996 42 14.8272C42 18.6662 41.955 21.8673 41.9101 21.9357C41.8651 21.9926 41.674 22.1066 41.4941 22.1749C41.3142 22.2319 40.9769 22.3458 40.7633 22.4141C40.5497 22.4825 40.0663 22.5964 39.6953 22.6534C39.3243 22.7217 38.8296 22.7787 38.5935 22.7787C38.3462 22.7787 37.874 22.6192 37.413 22.3913C36.997 22.1863 36.4799 21.8104 36.2663 21.5711C36.0527 21.3205 35.4118 20.5231 34.8609 19.7826C34.2988 19.0422 33.7367 18.2675 33.5905 18.0739C33.4444 17.8688 33.0172 17.3562 32.6349 16.9233C32.2527 16.479 31.8142 15.9664 31.6568 15.7727C31.4994 15.5677 30.7911 14.85 30.0828 14.1779C29.3746 13.5058 28.6213 12.8792 28.4189 12.7995C28.2278 12.7083 27.7331 12.64 27.3284 12.64C26.6089 12.64 26.5414 12.6628 20.0207 16.0119L19.4024 15.9436C19.0651 15.9094 18.6491 15.7955 18.4805 15.7044C18.3118 15.6246 17.9858 15.2829 17.7722 14.9753C17.4349 14.4968 17.3787 14.3146 17.3787 13.8019C17.3787 13.4374 17.4686 13.0273 17.6035 12.7539C17.7272 12.5033 18.042 12.1274 18.3006 11.9109C18.5704 11.7059 19.3911 11.2046 20.1331 10.8173C20.8751 10.4186 21.5609 10.0313 21.6509 9.95152C21.7408 9.88317 22.4491 9.47307 23.2249 9.05157C24.0006 8.63008 25.1811 7.95796 25.8669 7.57064C26.5527 7.17193 27.3396 6.71626 27.632 6.55677C27.9355 6.3859 28.3852 6.19224 28.6438 6.1011Z" fill="#3E1B05"/>
<path d="M9.56509 21.8104C9.75621 21.6964 10.0485 21.5597 10.2396 21.5142C10.4308 21.4686 10.7568 21.4344 10.9704 21.423C11.2178 21.4117 11.5213 21.5142 11.7799 21.6964C12.016 21.8559 12.2858 22.1521 12.3757 22.3458C12.4769 22.5508 12.5444 22.904 12.5444 23.1204C12.5444 23.3369 12.4882 23.7014 12.4207 23.9178C12.3533 24.1343 12.3308 24.3849 12.3645 24.4533C12.4207 24.5672 12.5107 24.5672 12.7692 24.4305C12.9604 24.3393 13.3538 24.2596 13.6686 24.2596C14.1521 24.2596 14.287 24.3166 14.6243 24.6241C14.9166 24.8975 15.0515 25.1368 15.1077 25.5127C15.1639 25.7975 15.1527 26.2532 15.1077 26.5379C15.0515 26.8227 15.0402 27.1189 15.074 27.1873C15.1189 27.3012 15.1864 27.3012 15.3775 27.2101C15.5462 27.1303 15.8947 27.1075 16.3107 27.1531C16.8728 27.2101 17.0527 27.2898 17.345 27.5974C17.5586 27.8138 17.7385 28.1328 17.7834 28.3606C17.8284 28.5999 17.7722 29.0214 17.671 29.3859C17.5698 29.7276 17.4911 30.0808 17.4911 30.1491C17.4911 30.2631 17.5811 30.2745 17.8509 30.1833C18.0533 30.115 18.5367 30.0694 18.9189 30.0694C19.571 30.0694 19.6497 30.1036 19.9645 30.4339C20.1556 30.639 20.3467 30.9921 20.3805 31.2086C20.4142 31.425 20.4142 31.8123 20.3692 32.063C20.3355 32.3136 20.1556 32.7465 19.9757 33.0313C19.7959 33.3161 19.4811 33.6806 19.2787 33.8401C19.0651 33.9996 18.7166 34.2274 18.503 34.3413C18.1882 34.5008 17.9521 34.535 17.3225 34.4666C16.8053 34.4211 16.468 34.3299 16.3219 34.1932C16.2095 34.0907 16.0521 33.8629 15.9621 33.6806C15.8722 33.5097 15.8047 33.2021 15.8047 32.9971C15.8047 32.8034 15.8834 32.3705 15.9734 32.063C16.0633 31.744 16.1083 31.4706 16.0858 31.4364C16.0521 31.4022 15.8385 31.4478 15.6024 31.5162C15.3775 31.5959 14.9615 31.6642 14.6805 31.6642C14.2757 31.6529 14.0959 31.5845 13.8035 31.3225C13.6124 31.1288 13.3988 30.8782 13.3314 30.7529C13.2639 30.6276 13.2189 30.3086 13.2189 30.0352C13.2302 29.7732 13.2976 29.3517 13.3876 29.1011C13.4775 28.8505 13.5337 28.634 13.5225 28.6226C13.5112 28.6113 13.174 28.6568 12.7692 28.7366C12.2183 28.8277 11.926 28.8277 11.555 28.7252C11.1953 28.6226 11.0266 28.4859 10.8467 28.1556C10.6444 27.8024 10.6219 27.6088 10.6669 26.9936C10.7006 26.5835 10.7456 26.1506 10.768 26.0253C10.7905 25.8431 10.7456 25.8089 10.5207 25.8317C10.3633 25.8544 10.0148 25.9 9.73373 25.9342C9.37396 25.9798 9.10414 25.9342 8.78935 25.7861C8.55325 25.6608 8.26095 25.3988 8.12604 25.1709C7.94615 24.8634 7.91243 24.6469 7.9574 24.2026C7.99112 23.8837 8.12604 23.428 8.2497 23.1774C8.37337 22.9268 8.6432 22.5622 8.8568 22.3686C9.05917 22.1749 9.37396 21.9243 9.56509 21.8104Z" fill="#3E1B05"/>
<path d="M63.946 29.26C62.5247 29.26 61.216 29.0347 60.02 28.584C58.8413 28.116 57.81 27.466 56.926 26.634C56.042 25.7847 55.3573 24.788 54.872 23.644C54.3867 22.5 54.144 21.252 54.144 19.9C54.144 18.548 54.3867 17.3 54.872 16.156C55.3573 15.012 56.042 14.024 56.926 13.192C57.8273 12.3427 58.876 11.6927 60.072 11.242C61.268 10.774 62.5767 10.54 63.998 10.54C65.5407 10.54 66.9273 10.7913 68.158 11.294C69.406 11.7967 70.4547 12.5333 71.304 13.504L69.172 15.584C68.4613 14.8733 67.69 14.3533 66.858 14.024C66.0433 13.6773 65.142 13.504 64.154 13.504C63.2007 13.504 62.3167 13.66 61.502 13.972C60.6873 14.284 59.9853 14.726 59.396 15.298C58.8067 15.87 58.3473 16.546 58.018 17.326C57.706 18.106 57.55 18.964 57.55 19.9C57.55 20.8187 57.706 21.668 58.018 22.448C58.3473 23.228 58.8067 23.9127 59.396 24.502C59.9853 25.074 60.6787 25.516 61.476 25.828C62.2733 26.14 63.1573 26.296 64.128 26.296C65.0293 26.296 65.896 26.1573 66.728 25.88C67.5773 25.5853 68.3833 25.1 69.146 24.424L71.07 26.946C70.1167 27.7087 69.0073 28.2893 67.742 28.688C66.494 29.0693 65.2287 29.26 63.946 29.26ZM67.872 26.504V19.692H71.07V26.946L67.872 26.504ZM81.456 29.182C80.0347 29.182 78.7693 28.8787 77.66 28.272C76.5507 27.648 75.6753 26.7987 75.034 25.724C74.3927 24.6493 74.072 23.4273 74.072 22.058C74.072 20.6713 74.3927 19.4493 75.034 18.392C75.6753 17.3173 76.5507 16.4767 77.66 15.87C78.7693 15.2633 80.0347 14.96 81.456 14.96C82.8947 14.96 84.1687 15.2633 85.278 15.87C86.4047 16.4767 87.28 17.3087 87.904 18.366C88.5453 19.4233 88.866 20.654 88.866 22.058C88.866 23.4273 88.5453 24.6493 87.904 25.724C87.28 26.7987 86.4047 27.648 85.278 28.272C84.1687 28.8787 82.8947 29.182 81.456 29.182ZM81.456 26.4C82.2533 26.4 82.964 26.2267 83.588 25.88C84.212 25.5333 84.6973 25.0307 85.044 24.372C85.408 23.7133 85.59 22.942 85.59 22.058C85.59 21.1567 85.408 20.3853 85.044 19.744C84.6973 19.0853 84.212 18.5827 83.588 18.236C82.964 17.8893 82.262 17.716 81.482 17.716C80.6847 17.716 79.974 17.8893 79.35 18.236C78.7433 18.5827 78.258 19.0853 77.894 19.744C77.53 20.3853 77.348 21.1567 77.348 22.058C77.348 22.942 77.53 23.7133 77.894 24.372C78.258 25.0307 78.7433 25.5333 79.35 25.88C79.974 26.2267 80.676 26.4 81.456 26.4ZM98.2138 29.182C96.7925 29.182 95.5271 28.8787 94.4178 28.272C93.3085 27.648 92.4331 26.7987 91.7918 25.724C91.1505 24.6493 90.8298 23.4273 90.8298 22.058C90.8298 20.6713 91.1505 19.4493 91.7918 18.392C92.4331 17.3173 93.3085 16.4767 94.4178 15.87C95.5271 15.2633 96.7925 14.96 98.2138 14.96C99.6525 14.96 100.926 15.2633 102.036 15.87C103.162 16.4767 104.038 17.3087 104.662 18.366C105.303 19.4233 105.624 20.654 105.624 22.058C105.624 23.4273 105.303 24.6493 104.662 25.724C104.038 26.7987 103.162 27.648 102.036 28.272C100.926 28.8787 99.6525 29.182 98.2138 29.182ZM98.2138 26.4C99.0111 26.4 99.7218 26.2267 100.346 25.88C100.97 25.5333 101.455 25.0307 101.802 24.372C102.166 23.7133 102.348 22.942 102.348 22.058C102.348 21.1567 102.166 20.3853 101.802 19.744C101.455 19.0853 100.97 18.5827 100.346 18.236C99.7218 17.8893 99.0198 17.716 98.2398 17.716C97.4425 17.716 96.7318 17.8893 96.1078 18.236C95.5011 18.5827 95.0158 19.0853 94.6518 19.744C94.2878 20.3853 94.1058 21.1567 94.1058 22.058C94.1058 22.942 94.2878 23.7133 94.6518 24.372C95.0158 25.0307 95.5011 25.5333 96.1078 25.88C96.7318 26.2267 97.4338 26.4 98.2138 26.4ZM114.608 29.182C113.273 29.182 112.068 28.8873 110.994 28.298C109.936 27.6913 109.104 26.8593 108.498 25.802C107.891 24.7447 107.588 23.4967 107.588 22.058C107.588 20.6193 107.891 19.3713 108.498 18.314C109.104 17.2567 109.936 16.4333 110.994 15.844C112.068 15.2547 113.273 14.96 114.608 14.96C115.769 14.96 116.809 15.22 117.728 15.74C118.646 16.2427 119.374 17.014 119.912 18.054C120.449 19.094 120.718 20.4287 120.718 22.058C120.718 23.67 120.458 25.0047 119.938 26.062C119.418 27.102 118.698 27.882 117.78 28.402C116.861 28.922 115.804 29.182 114.608 29.182ZM114.998 26.4C115.778 26.4 116.471 26.2267 117.078 25.88C117.702 25.5333 118.196 25.0307 118.56 24.372C118.941 23.7133 119.132 22.942 119.132 22.058C119.132 21.1567 118.941 20.3853 118.56 19.744C118.196 19.0853 117.702 18.5827 117.078 18.236C116.471 17.8893 115.778 17.716 114.998 17.716C114.218 17.716 113.516 17.8893 112.892 18.236C112.285 18.5827 111.791 19.0853 111.41 19.744C111.046 20.3853 110.864 21.1567 110.864 22.058C110.864 22.942 111.046 23.7133 111.41 24.372C111.791 25.0307 112.285 25.5333 112.892 25.88C113.516 26.2267 114.218 26.4 114.998 26.4ZM119.21 29V25.724L119.34 22.032L119.08 18.34V9.708H122.304V29H119.21ZM139.685 10.8H143.065V29H139.685V10.8ZM130.273 29H126.893V10.8H130.273V29ZM139.945 21.2H129.987V18.314H139.945V21.2ZM154.156 29.182C152.613 29.182 151.261 28.8787 150.1 28.272C148.956 27.648 148.063 26.7987 147.422 25.724C146.798 24.6493 146.486 23.4273 146.486 22.058C146.486 20.6713 146.789 19.4493 147.396 18.392C148.02 17.3173 148.869 16.4767 149.944 15.87C151.036 15.2633 152.275 14.96 153.662 14.96C155.014 14.96 156.219 15.2547 157.276 15.844C158.333 16.4333 159.165 17.2653 159.772 18.34C160.379 19.4147 160.682 20.68 160.682 22.136C160.682 22.2747 160.673 22.4307 160.656 22.604C160.656 22.7773 160.647 22.942 160.63 23.098H149.06V20.94H158.914L157.64 21.616C157.657 20.8187 157.493 20.1167 157.146 19.51C156.799 18.9033 156.323 18.4267 155.716 18.08C155.127 17.7333 154.442 17.56 153.662 17.56C152.865 17.56 152.163 17.7333 151.556 18.08C150.967 18.4267 150.499 18.912 150.152 19.536C149.823 20.1427 149.658 20.862 149.658 21.694V22.214C149.658 23.046 149.849 23.7827 150.23 24.424C150.611 25.0653 151.149 25.5593 151.842 25.906C152.535 26.2527 153.333 26.426 154.234 26.426C155.014 26.426 155.716 26.3047 156.34 26.062C156.964 25.8193 157.519 25.438 158.004 24.918L159.746 26.92C159.122 27.648 158.333 28.2113 157.38 28.61C156.444 28.9913 155.369 29.182 154.156 29.182ZM163.804 29V9.708H167.054V29H163.804ZM179.016 29.182C177.889 29.182 176.858 28.922 175.922 28.402C175.003 27.882 174.266 27.102 173.712 26.062C173.174 25.0047 172.906 23.67 172.906 22.058C172.906 20.4287 173.166 19.094 173.686 18.054C174.223 17.014 174.951 16.2427 175.869 15.74C176.788 15.22 177.837 14.96 179.016 14.96C180.385 14.96 181.59 15.2547 182.63 15.844C183.687 16.4333 184.519 17.2567 185.126 18.314C185.75 19.3713 186.062 20.6193 186.062 22.058C186.062 23.4967 185.75 24.7533 185.126 25.828C184.519 26.8853 183.687 27.7087 182.63 28.298C181.59 28.8873 180.385 29.182 179.016 29.182ZM171.32 34.044V15.116H174.414V18.392L174.31 22.084L174.57 25.776V34.044H171.32ZM178.652 26.4C179.432 26.4 180.125 26.2267 180.732 25.88C181.356 25.5333 181.85 25.0307 182.214 24.372C182.578 23.7133 182.76 22.942 182.76 22.058C182.76 21.1567 182.578 20.3853 182.214 19.744C181.85 19.0853 181.356 18.5827 180.732 18.236C180.125 17.8893 179.432 17.716 178.652 17.716C177.872 17.716 177.17 17.8893 176.546 18.236C175.922 18.5827 175.428 19.0853 175.064 19.744C174.7 20.3853 174.518 21.1567 174.518 22.058C174.518 22.942 174.7 23.7133 175.064 24.372C175.428 25.0307 175.922 25.5333 176.546 25.88C177.17 26.2267 177.872 26.4 178.652 26.4Z" fill="#3E1B05"/>
</svg>
